# xmcd
#
# Track frame offsets:
#	150
#	13475
#	26244
#	41727
#	57392
#	73442
#	86304
#	102137
#	113507
#	130577
#	146330
#	161702
#	182260
#
# Disc length: 2629 seconds
#
# Revision: 4293197791
# Processed by: cddbd v1.5.2PL0 Copyright (c) Steve Scherf et al.
# Submitted via: EZCDAudioConverter 7.2.1.1
#
DISCID=ae0a430d
DTITLE=Cindy Church
DYEAR=1996
DGENRE=Country
TTITLE0=Wichita
TTITLE1=Bitter Pride
TTITLE2=Sweet Dreams of You
TTITLE3=The Only Star I See
TTITLE4=Whispering Pines
TTITLE5=Wheel of Love
TTITLE6=Only Time Can Cure
TTITLE7=The Chance You Took With Me
TTITLE8=My Baby
TTITLE9=What We Almost Had
TTITLE10=What Does She See
TTITLE11=Lover Please
TTITLE12=In My Life
EXTD=
EXTT0=
EXTT1=
EXTT2=
EXTT3=
EXTT4=
EXTT5=
EXTT6=
EXTT7=
EXTT8=
EXTT9=
EXTT10=
EXTT11=
EXTT12=
PLAYORDER=
